<?xml version="1.0" encoding="utf-8"?>
<svg xmlns="http://www.w3.org/2000/svg" style="margin: auto; background: rgb(212, 41, 41); display: block; shape-rendering: auto;" width="169" height="46" preserveAspectRatio="xMidYMid">
<style type="text/css">
  text {
    text-anchor: middle; font-size: 40px; opacity: 0;
  }
</style>
<g style="transform-origin: 84.5px 23px; transform: scale(0.5);">
<g transform="translate(84.5,23)">
  <g transform="translate(0,0)"><g class="path" style="transform: rotate(0deg); transform-origin: -119.02px -7.80194px; animation: 2.32558s linear -1.39535s infinite normal forwards running spin-26930472-1277-49d3-9393-10aa52b13a04;"><path d="M11.21 0L6.41 0L6.41-56.02L11.21-56.02L11.21 0" fill="#ffffff" stroke="none" stroke-width="none" transform="translate(-127.83001708984375,20.208055641867894)" style="fill: rgb(255, 255, 255);"></path></g><g class="path" style="transform: rotate(0deg); transform-origin: -92.83px 0.208055px; animation: 2.32558s linear -1.25581s infinite normal forwards running spin-26930472-1277-49d3-9393-10aa52b13a04;"><path d="M48.36-10.98L48.36-10.98L48.36-10.98Q48.36-8.55 47.44-6.41L47.44-6.41L47.44-6.41Q46.52-4.26 44.92-2.66L44.92-2.66L44.92-2.66Q43.32-1.05 41.17-0.14L41.17-0.14L41.17-0.14Q39.02 0.78 36.60 0.78L36.60 0.78L33.40 0.78L33.40 0.78Q30.98 0.78 28.83-0.14L28.83-0.14L28.83-0.14Q26.68-1.05 25.08-2.66L25.08-2.66L25.08-2.66Q23.48-4.26 22.56-6.41L22.56-6.41L22.56-6.41Q21.64-8.55 21.64-10.98L21.64-10.98L21.64-29.02L21.64-29.02Q21.64-31.45 22.56-33.59L22.56-33.59L22.56-33.59Q23.48-35.74 25.08-37.34L25.08-37.34L25.08-37.34Q26.68-38.95 28.83-39.86L28.83-39.86L28.83-39.86Q30.98-40.78 33.40-40.78L33.40-40.78L36.60-40.78L36.60-40.78Q39.02-40.78 41.17-39.86L41.17-39.86L41.17-39.86Q43.32-38.95 44.92-37.34L44.92-37.34L44.92-37.34Q46.52-35.74 47.44-33.59L47.44-33.59L47.44-33.59Q48.36-31.45 48.36-29.02L48.36-29.02L48.36-10.98zM43.55-10.70L43.55-29.30L43.55-29.30Q43.55-30.74 43.01-32.01L43.01-32.01L43.01-32.01Q42.46-33.28 41.52-34.22L41.52-34.22L41.52-34.22Q40.59-35.16 39.32-35.70L39.32-35.70L39.32-35.70Q38.05-36.25 36.60-36.25L36.60-36.25L33.40-36.25L33.40-36.25Q31.95-36.25 30.68-35.70L30.68-35.70L30.68-35.70Q29.41-35.16 28.48-34.22L28.48-34.22L28.48-34.22Q27.54-33.28 26.99-32.01L26.99-32.01L26.99-32.01Q26.45-30.74 26.45-29.30L26.45-29.30L26.45-10.70L26.45-10.70Q26.45-9.26 26.99-7.99L26.99-7.99L26.99-7.99Q27.54-6.72 28.48-5.78L28.48-5.78L28.48-5.78Q29.41-4.84 30.68-4.30L30.68-4.30L30.68-4.30Q31.95-3.75 33.40-3.75L33.40-3.75L36.60-3.75L36.60-3.75Q38.05-3.75 39.32-4.30L39.32-4.30L39.32-4.30Q40.59-4.84 41.52-5.78L41.52-5.78L41.52-5.78Q42.46-6.72 43.01-7.99L43.01-7.99L43.01-7.99Q43.55-9.26 43.55-10.70L43.55-10.70" fill="#ffffff" stroke="none" stroke-width="none" transform="translate(-127.83001708984375,20.208055641867894)" style="fill: rgb(255, 255, 255);"></path></g><g class="path" style="transform: rotate(0deg); transform-origin: -56.5px 0.208055px; animation: 2.32558s linear -1.11628s infinite normal forwards running spin-26930472-1277-49d3-9393-10aa52b13a04;"><path d="M84.69 0L83.09 0L80.43-3.98L80.43-3.98Q78.79-1.84 76.33-0.53L76.33-0.53L76.33-0.53Q73.87 0.78 70.94 0.78L70.94 0.78L69.73 0.78L69.73 0.78Q67.30 0.78 65.16-0.14L65.16-0.14L65.16-0.14Q63.01-1.05 61.41-2.66L61.41-2.66L61.41-2.66Q59.80-4.26 58.89-6.41L58.89-6.41L58.89-6.41Q57.97-8.55 57.97-10.98L57.97-10.98L57.97-11.37L57.97-11.37Q57.97-13.79 58.89-15.94L58.89-15.94L58.89-15.94Q59.80-18.09 61.41-19.69L61.41-19.69L61.41-19.69Q63.01-21.29 65.16-22.21L65.16-22.21L65.16-22.21Q67.30-23.13 69.73-23.13L69.73-23.13L79.88-23.13L79.88-29.30L79.88-29.30Q79.88-30.74 79.34-32.01L79.34-32.01L79.34-32.01Q78.79-33.28 77.85-34.22L77.85-34.22L77.85-34.22Q76.91-35.16 75.64-35.70L75.64-35.70L75.64-35.70Q74.38-36.25 72.93-36.25L72.93-36.25L70.12-36.25L70.12-36.25Q68.67-36.25 67.40-35.70L67.40-35.70L67.40-35.70Q66.13-35.16 65.20-34.22L65.20-34.22L65.20-34.22Q64.26-33.28 63.71-32.01L63.71-32.01L63.71-32.01Q63.16-30.74 63.16-29.30L63.16-29.30L63.16-27.85L58.36-28.63L58.36-29.02L58.36-29.02Q58.36-31.45 59.28-33.59L59.28-33.59L59.28-33.59Q60.20-35.74 61.80-37.34L61.80-37.34L61.80-37.34Q63.40-38.95 65.55-39.86L65.55-39.86L65.55-39.86Q67.70-40.78 70.12-40.78L70.12-40.78L72.93-40.78L72.93-40.78Q75.35-40.78 77.50-39.86L77.50-39.86L77.50-39.86Q79.65-38.95 81.25-37.34L81.25-37.34L81.25-37.34Q82.85-35.74 83.77-33.59L83.77-33.59L83.77-33.59Q84.69-31.45 84.69-29.02L84.69-29.02L84.69 0zM79.88-10.70L79.88-19.38L69.73-19.38L69.73-19.38Q68.28-19.38 67.01-18.83L67.01-18.83L67.01-18.83Q65.74-18.28 64.80-17.32L64.80-17.32L64.80-17.32Q63.87-16.37 63.32-15.10L63.32-15.10L63.32-15.10Q62.77-13.83 62.77-12.38L62.77-12.38L62.77-10.70L62.77-10.70Q62.77-9.26 63.32-7.99L63.32-7.99L63.32-7.99Q63.87-6.72 64.80-5.78L64.80-5.78L64.80-5.78Q65.74-4.84 67.01-4.30L67.01-4.30L67.01-4.30Q68.28-3.75 69.73-3.75L69.73-3.75L72.93-3.75L72.93-3.75Q74.38-3.75 75.64-4.30L75.64-4.30L75.64-4.30Q76.91-4.84 77.85-5.78L77.85-5.78L77.85-5.78Q78.79-6.72 79.34-7.99L79.34-7.99L79.34-7.99Q79.88-9.26 79.88-10.70L79.88-10.70" fill="#ffffff" stroke="none" stroke-width="none" transform="translate(-127.83001708984375,20.208055641867894)" style="fill: rgb(255, 255, 255);"></path></g><g class="path" style="transform: rotate(0deg); transform-origin: -20.17px -7.41194px; animation: 2.32558s linear -0.976744s infinite normal forwards running spin-26930472-1277-49d3-9393-10aa52b13a04;"><path d="M121.02 0L119.41 0L116.76-4.06L116.76-4.06Q115.12-1.84 112.66-0.53L112.66-0.53L112.66-0.53Q110.20 0.78 107.27 0.78L107.27 0.78L106.05 0.78L106.05 0.78Q103.63 0.78 101.48-0.14L101.48-0.14L101.48-0.14Q99.34-1.05 97.73-2.66L97.73-2.66L97.73-2.66Q96.13-4.26 95.21-6.41L95.21-6.41L95.21-6.41Q94.30-8.55 94.30-10.98L94.30-10.98L94.30-29.02L94.30-29.02Q94.30-31.45 95.21-33.59L95.21-33.59L95.21-33.59Q96.13-35.74 97.73-37.34L97.73-37.34L97.73-37.34Q99.34-38.95 101.48-39.86L101.48-39.86L101.48-39.86Q103.63-40.78 106.05-40.78L106.05-40.78L107.27-40.78L107.27-40.78Q109.96-40.78 112.27-39.69L112.27-39.69L112.27-39.69Q114.57-38.59 116.21-36.64L116.21-36.64L116.21-56.02L121.02-56.02L121.02 0zM116.21-10.70L116.21-29.30L116.21-29.30Q116.21-30.74 115.66-32.01L115.66-32.01L115.66-32.01Q115.12-33.28 114.18-34.22L114.18-34.22L114.18-34.22Q113.24-35.16 111.97-35.70L111.97-35.70L111.97-35.70Q110.70-36.25 109.26-36.25L109.26-36.25L106.05-36.25L106.05-36.25Q104.61-36.25 103.34-35.70L103.34-35.70L103.34-35.70Q102.07-35.16 101.13-34.22L101.13-34.22L101.13-34.22Q100.20-33.28 99.65-32.01L99.65-32.01L99.65-32.01Q99.10-30.74 99.10-29.30L99.10-29.30L99.10-10.70L99.10-10.70Q99.10-9.26 99.65-7.99L99.65-7.99L99.65-7.99Q100.20-6.72 101.13-5.78L101.13-5.78L101.13-5.78Q102.07-4.84 103.34-4.30L103.34-4.30L103.34-4.30Q104.61-3.75 106.05-3.75L106.05-3.75L109.26-3.75L109.26-3.75Q110.70-3.75 111.97-4.30L111.97-4.30L111.97-4.30Q113.24-4.84 114.18-5.78L114.18-5.78L114.18-5.78Q115.12-6.72 115.66-7.99L115.66-7.99L115.66-7.99Q116.21-9.26 116.21-10.70L116.21-10.70" fill="#ffffff" stroke="none" stroke-width="none" transform="translate(-127.83001708984375,20.208055641867894)" style="fill: rgb(255, 255, 255);"></path></g><g class="path" style="transform: rotate(0deg); transform-origin: 6.79998px -32.6069px; animation: 2.32558s linear -0.837209s infinite normal forwards running spin-26930472-1277-49d3-9393-10aa52b13a04;"><path d="M137.42-49.61L131.84-49.61L131.84-56.02L137.42-56.02L137.42-49.61" fill="#ffffff" stroke="none" stroke-width="none" transform="translate(-127.83001708984375,20.208055641867894)" style="fill: rgb(255, 255, 255);"></path></g><g class="path" style="transform: rotate(0deg); transform-origin: 6.79998px 0.208055px; animation: 2.32558s linear -0.697674s infinite normal forwards running spin-26930472-1277-49d3-9393-10aa52b13a04;"><path d="M137.03 0L132.23 0L132.23-40L137.03-40L137.03 0" fill="#ffffff" stroke="none" stroke-width="none" transform="translate(-127.83001708984375,20.208055641867894)" style="fill: rgb(255, 255, 255);"></path></g><g class="path" style="transform: rotate(0deg); transform-origin: 33.77px -0.181944px; animation: 2.32558s linear -0.55814s infinite normal forwards running spin-26930472-1277-49d3-9393-10aa52b13a04;"><path d="M174.96 0L170.16 0L170.16-29.30L170.16-29.30Q170.16-30.74 169.61-32.01L169.61-32.01L169.61-32.01Q169.06-33.28 168.13-34.22L168.13-34.22L168.13-34.22Q167.19-35.16 165.92-35.70L165.92-35.70L165.92-35.70Q164.65-36.25 163.20-36.25L163.20-36.25L160-36.25L160-36.25Q158.55-36.25 157.29-35.70L157.29-35.70L157.29-35.70Q156.02-35.16 155.08-34.22L155.08-34.22L155.08-34.22Q154.14-33.28 153.59-32.01L153.59-32.01L153.59-32.01Q153.05-30.74 153.05-29.30L153.05-29.30L153.05 0L148.24 0L148.24-40L149.84-40L152.46-35.94L152.46-35.94Q154.10-38.16 156.58-39.47L156.58-39.47L156.58-39.47Q159.06-40.78 161.99-40.78L161.99-40.78L163.20-40.78L163.20-40.78Q165.63-40.78 167.77-39.86L167.77-39.86L167.77-39.86Q169.92-38.95 171.52-37.34L171.52-37.34L171.52-37.34Q173.13-35.74 174.04-33.59L174.04-33.59L174.04-33.59Q174.96-31.45 174.96-29.02L174.96-29.02L174.96 0" fill="#ffffff" stroke="none" stroke-width="none" transform="translate(-127.83001708984375,20.208055641867894)" style="fill: rgb(255, 255, 255);"></path></g><g class="path" style="transform: rotate(0deg); transform-origin: 70.49px 7.82806px; animation: 2.32558s linear -0.418605s infinite normal forwards running spin-26930472-1277-49d3-9393-10aa52b13a04;"><path d="M211.68 5.04L211.68 5.04L211.68 5.04Q211.68 7.46 210.76 9.49L210.76 9.49L210.76 9.49Q209.84 11.52 208.24 12.97L208.24 12.97L208.24 12.97Q206.64 14.41 204.49 15.21L204.49 15.21L204.49 15.21Q202.34 16.02 199.92 16.02L199.92 16.02L197.93 16.02L197.93 16.02Q195.51 16.02 193.36 15.21L193.36 15.21L193.36 15.21Q191.21 14.41 189.61 12.97L189.61 12.97L189.61 12.97Q188.01 11.52 187.09 9.49L187.09 9.49L187.09 9.49Q186.17 7.46 186.17 5.04L186.17 5.04L186.17 4.88L186.17 4.88Q186.17 2.54 187.03 0.59L187.03 0.59L187.03 0.59Q187.89-1.37 189.38-2.81L189.38-2.81L189.38-2.81Q187.50-3.95 186.39-5.88L186.39-5.88L186.39-5.88Q185.27-7.81 185.27-10.16L185.27-10.16L185.27-10.16Q185.27-12.27 186.17-14.08L186.17-14.08L186.17-14.08Q187.07-15.90 188.63-17.03L188.63-17.03L188.63-17.03Q186.76-18.67 185.66-20.98L185.66-20.98L185.66-20.98Q184.57-23.28 184.57-26.02L184.57-26.02L184.57-29.02L184.57-29.02Q184.57-31.45 185.49-33.59L185.49-33.59L185.49-33.59Q186.41-35.74 188.01-37.34L188.01-37.34L188.01-37.34Q189.61-38.95 191.76-39.86L191.76-39.86L191.76-39.86Q193.91-40.78 196.33-40.78L196.33-40.78L198.32-40.78L198.32-40.78Q201.25-40.78 203.73-39.47L203.73-39.47L203.73-39.47Q206.21-38.16 207.85-35.94L207.85-35.94L210.47-40L212.07-40L212.07-26.02L212.07-26.02Q212.07-23.59 211.15-21.45L211.15-21.45L211.15-21.45Q210.23-19.30 208.63-17.70L208.63-17.70L208.63-17.70Q207.03-16.09 204.88-15.18L204.88-15.18L204.88-15.18Q202.73-14.26 200.31-14.26L200.31-14.26L193.36-14.26L193.36-14.26Q192.54-14.26 191.80-13.93L191.80-13.93L191.80-13.93Q191.05-13.59 190.49-13.05L190.49-13.05L190.49-13.05Q189.92-12.50 189.61-11.74L189.61-11.74L189.61-11.74Q189.30-10.98 189.30-10.16L189.30-10.16L189.30-10.16Q189.30-9.34 189.61-8.59L189.61-8.59L189.61-8.59Q189.92-7.85 190.49-7.29L190.49-7.29L190.49-7.29Q191.05-6.72 191.80-6.41L191.80-6.41L191.80-6.41Q192.54-6.09 193.36-6.09L193.36-6.09L199.92-6.09L199.92-6.09Q202.34-6.09 204.49-5.29L204.49-5.29L204.49-5.29Q206.64-4.49 208.24-3.05L208.24-3.05L208.24-3.05Q209.84-1.60 210.76 0.43L210.76 0.43L210.76 0.43Q211.68 2.46 211.68 4.88L211.68 4.88L211.68 5.04zM207.30-25.74L207.30-29.30L207.30-29.30Q207.30-30.74 206.76-32.01L206.76-32.01L206.76-32.01Q206.21-33.28 205.25-34.22L205.25-34.22L205.25-34.22Q204.30-35.16 203.03-35.70L203.03-35.70L203.03-35.70Q201.76-36.25 200.31-36.25L200.31-36.25L196.33-36.25L196.33-36.25Q194.88-36.25 193.61-35.70L193.61-35.70L193.61-35.70Q192.34-35.16 191.41-34.22L191.41-34.22L191.41-34.22Q190.47-33.28 189.92-32.01L189.92-32.01L189.92-32.01Q189.38-30.74 189.38-29.30L189.38-29.30L189.38-25.74L189.38-25.74Q189.38-24.30 189.92-23.03L189.92-23.03L189.92-23.03Q190.47-21.76 191.41-20.82L191.41-20.82L191.41-20.82Q192.34-19.88 193.61-19.34L193.61-19.34L193.61-19.34Q194.88-18.79 196.33-18.79L196.33-18.79L200.31-18.79L200.31-18.79Q201.76-18.79 203.03-19.34L203.03-19.34L203.03-19.34Q204.30-19.88 205.25-20.82L205.25-20.82L205.25-20.82Q206.21-21.76 206.76-23.03L206.76-23.03L206.76-23.03Q207.30-24.30 207.30-25.74L207.30-25.74zM207.11 5.27L207.11 4.65L207.11 4.65Q207.11 3.20 206.56 2.05L206.56 2.05L206.56 2.05Q206.02 0.90 205.08 0.12L205.08 0.12L205.08 0.12Q204.14-0.66 202.87-1.09L202.87-1.09L202.87-1.09Q201.60-1.52 200.16-1.52L200.16-1.52L197.70-1.52L197.70-1.52Q196.25-1.52 194.98-1.09L194.98-1.09L194.98-1.09Q193.71-0.66 192.77 0.12L192.77 0.12L192.77 0.12Q191.84 0.90 191.29 2.05L191.29 2.05L191.29 2.05Q190.74 3.20 190.74 4.65L190.74 4.65L190.74 5.27L190.74 5.27Q190.74 6.72 191.29 7.85L191.29 7.85L191.29 7.85Q191.84 8.98 192.77 9.79L192.77 9.79L192.77 9.79Q193.71 10.59 194.98 11.02L194.98 11.02L194.98 11.02Q196.25 11.45 197.70 11.45L197.70 11.45L200.16 11.45L200.16 11.45Q201.60 11.45 202.87 11.02L202.87 11.02L202.87 11.02Q204.14 10.59 205.08 9.79L205.08 9.79L205.08 9.79Q206.02 8.98 206.56 7.85L206.56 7.85L206.56 7.85Q207.11 6.72 207.11 5.27L207.11 5.27" fill="#ffffff" stroke="none" stroke-width="none" transform="translate(-127.83001708984375,20.208055641867894)" style="fill: rgb(255, 255, 255);"></path></g><g class="path" style="transform: rotate(0deg); transform-origin: 96.86px 17.1981px; animation: 2.32558s linear -0.27907s infinite normal forwards running spin-26930472-1277-49d3-9393-10aa52b13a04;"><path d="M227.70 0L221.68 0L221.68-6.02L227.70-6.02L227.70 0" fill="#ffffff" stroke="none" stroke-width="none" transform="translate(-127.83001708984375,20.208055641867894)" style="fill: rgb(255, 255, 255);"></path></g><g class="path" style="transform: rotate(0deg); transform-origin: 114.045px 17.1981px; animation: 2.32558s linear -0.139535s infinite normal forwards running spin-26930472-1277-49d3-9393-10aa52b13a04;"><path d="M244.88 0L238.87 0L238.87-6.02L244.88-6.02L244.88 0" fill="#ffffff" stroke="none" stroke-width="none" transform="translate(-127.83001708984375,20.208055641867894)" style="fill: rgb(255, 255, 255);"></path></g><g class="path" style="transform: rotate(0deg); transform-origin: 131.23px 17.1981px; animation: 2.32558s linear 0s infinite normal forwards running spin-26930472-1277-49d3-9393-10aa52b13a04;"><path d="M262.07 0L256.05 0L256.05-6.02L262.07-6.02L262.07 0" fill="#ffffff" stroke="none" stroke-width="none" transform="translate(-127.83001708984375,20.208055641867894)" style="fill: rgb(255, 255, 255);"></path></g></g>
</g>
</g>
<style id="spin-26930472-1277-49d3-9393-10aa52b13a04" data-anikit="">@keyframes spin-26930472-1277-49d3-9393-10aa52b13a04
{
  0% {
    animation-timing-function: cubic-bezier(0.5856,0.0703,0.4143,0.9297);
    transform: rotate(0deg);
  }
  100% {
    transform: rotate(360deg);
  }
}</style></svg>